        <svg viewBox="0 0 600 380" preserveAspectRatio="xMidYMid meet" xmlns="http://www.w3.org/2000/svg">

          <!-- Estados de México (paths reales del GeoJSON) -->
          <path class="state-prio" data-code="9" data-name="Distrito Federal" d="M362.2,270.5L362.8,272.7L364.5,274.1L364.8,276.1L364.2,279.1L362.7,279.6L358.8,277.9L357.3,275.1L359.5,272.5L360.2,270.4L361.0,270.7L360.7,270.1L361.6,268.9L362.2,270.5Z"/>
          <path class="state-base" data-code="12" data-name="Guerrero" d="M336.2,283.6L338.2,284.8L337.2,287.6L338.2,288.4L338.2,290.1L338.8,289.5L339.4,290.4L339.0,291.7L340.4,292.9L344.3,289.9L344.7,288.5L345.5,288.3L346.6,289.3L347.9,288.0L349.7,287.6L350.6,285.7L351.8,286.1L351.3,284.7L352.5,286.0L354.3,286.5L355.0,286.0L357.4,290.9L361.3,291.0L362.6,292.9L362.9,295.2L364.0,295.2L363.8,296.4L365.9,296.8L366.2,299.0L368.5,299.3L367.1,299.9L370.2,301.4L372.4,300.2L374.0,300.4L374.1,303.2L372.9,304.5L373.0,305.9L373.5,307.3L375.0,307.8L375.8,309.2L376.6,313.2L376.0,314.3L378.1,315.4L377.8,317.3L381.6,318.9L379.8,320.5L380.5,322.1L379.8,324.3L377.5,325.4L378.1,327.8L374.7,328.5L375.5,330.5L374.6,331.8L373.6,331.7L371.9,333.0L367.9,328.4L365.5,328.8L359.7,326.8L351.9,325.6L345.9,321.3L326.8,314.4L326.6,313.3L324.3,311.3L320.0,309.4L318.7,307.4L316.4,306.6L313.2,302.1L309.3,300.3L307.6,301.3L306.7,298.9L307.1,296.9L310.4,296.0L312.5,294.4L312.1,290.7L312.8,288.8L316.5,288.3L319.0,290.6L322.9,289.4L327.8,289.8L328.6,291.2L331.7,290.7L334.4,293.3L335.3,292.0L332.6,289.9L331.7,283.9L332.5,283.1L333.3,284.5L334.9,282.7L336.2,283.6Z"/>
          <path class="state-base" data-code="15" data-name="México" d="M348.4,255.7L350.9,257.7L354.6,257.5L355.9,260.7L355.2,262.8L357.1,263.9L356.9,265.3L359.9,263.1L360.0,261.8L361.3,260.4L362.6,260.6L362.6,261.2L363.3,260.7L363.2,261.5L364.0,259.6L364.8,260.4L364.8,261.4L363.9,261.8L364.7,262.8L363.5,263.5L364.4,264.7L366.2,263.0L369.7,263.8L369.2,264.2L371.1,265.5L370.7,267.6L369.8,267.6L369.1,269.7L370.4,272.1L369.9,274.2L370.5,275.5L370.5,280.1L368.9,281.6L367.6,281.8L365.3,279.3L364.2,279.1L364.5,274.1L362.8,272.7L361.6,268.9L360.7,270.1L361.0,270.7L360.2,270.4L359.5,272.5L357.4,274.6L358.8,277.9L358.2,278.6L358.2,281.5L356.1,282.9L355.0,286.0L354.3,286.5L352.5,286.0L351.3,284.7L351.8,286.1L350.6,285.7L349.7,287.6L347.9,288.0L346.6,289.3L345.5,288.3L344.7,288.5L344.3,289.9L340.4,292.9L339.0,291.7L339.4,290.4L338.8,289.5L338.2,290.1L338.2,288.4L337.2,287.6L338.2,284.8L334.9,282.7L336.2,281.7L336.4,280.3L338.5,279.3L340.3,273.4L342.4,271.8L342.7,270.9L341.1,267.6L341.3,266.8L343.2,266.3L343.5,264.0L344.3,263.7L343.2,259.9L344.5,260.4L345.9,259.4L347.2,259.7L346.3,256.3L347.3,256.7L347.5,255.4L348.4,255.7Z"/>
          <path class="state-base" data-code="17" data-name="Morelos" d="M362.7,279.6L363.3,278.9L365.3,279.3L367.6,281.8L368.9,281.6L370.4,280.2L368.3,285.6L368.9,285.6L369.1,291.4L367.2,289.9L362.6,293.6L361.3,291.0L357.4,290.9L355.0,286.0L356.1,282.9L358.2,281.5L358.5,278.1L362.7,279.6Z"/>
          <path class="state-prio" data-code="25" data-name="Sinaloa" d="M194.0,123.3L196.5,123.9L197.0,123.2L199.0,123.3L198.3,125.8L199.9,125.8L199.9,126.5L200.8,126.5L202.3,128.6L202.2,130.1L201.0,131.0L203.1,133.2L202.2,134.9L205.1,139.7L206.4,140.8L207.2,140.2L210.4,140.4L211.1,141.5L212.9,140.8L214.2,141.4L215.4,143.5L215.1,145.0L219.3,148.3L219.2,149.0L221.0,149.4L220.9,150.8L217.3,152.1L217.6,154.3L216.6,154.9L217.3,156.7L216.7,156.6L218.2,158.3L218.1,162.0L221.7,165.7L221.6,166.6L222.9,166.6L225.7,169.6L227.0,172.7L228.2,173.4L227.5,174.5L229.0,177.0L231.8,176.7L233.5,175.3L237.0,177.4L238.3,179.8L238.3,181.8L239.8,182.7L239.3,183.7L240.9,184.6L239.1,184.5L239.0,185.8L240.0,187.8L240.2,191.4L241.7,190.3L242.5,191.4L243.7,194.0L243.1,194.9L244.7,196.8L244.7,199.4L246.3,200.3L248.8,199.9L249.2,200.6L248.9,201.8L247.3,203.0L247.8,204.5L246.9,207.6L248.4,210.3L247.9,211.9L244.4,210.3L243.7,210.9L243.7,212.6L240.6,207.9L230.7,198.7L228.8,194.6L223.8,189.5L222.3,185.8L216.9,180.7L202.4,169.9L198.3,162.6L194.4,158.1L184.0,154.4L180.6,150.9L177.5,150.6L176.5,144.5L179.4,138.0L180.9,136.8L182.2,137.7L184.4,135.6L186.7,135.6L187.4,134.3L186.1,134.1L186.8,132.7L190.3,132.0L194.1,124.5L194.8,124.4L193.4,124.2L194.0,123.3Z"/>
          <path class="state-prio" data-code="2" data-name="Baja California" d="M73.1,97.0L74.1,100.6L73.6,103.7L72.4,103.6L71.5,102.5L70.6,102.9L72.6,100.0L72.2,98.7L73.1,97.0Z M114.7,91.1L117.2,92.8L114.7,91.1Z M103.4,82.9L103.7,84.0L103.4,82.9Z M103.6,74.0L105.9,75.8L106.6,77.3L106.3,78.8L109.7,79.2L109.7,82.3L111.0,83.7L110.7,85.0L103.9,79.3L102.2,76.8L102.5,74.3L103.6,74.0Z M17.3,81.4L18.7,84.5L18.7,86.3L17.5,87.3L16.8,84.0L16.0,83.5L16.0,81.8L17.3,81.4Z M81.5,30.0L83.2,32.3L80.7,31.4L80.5,29.8L81.5,30.0Z M46.6,14.9L82.0,12.0L80.3,16.4L78.0,16.8L77.6,19.2L76.0,21.3L77.4,22.6L77.6,27.7L80.4,29.7L80.7,33.6L79.5,35.8L78.9,42.7L80.3,44.8L79.9,45.6L81.9,46.9L82.2,48.3L82.3,52.8L83.5,55.4L82.9,61.4L85.3,65.9L87.5,67.4L87.9,69.6L91.1,70.2L101.4,79.3L101.0,80.6L102.6,82.7L102.8,85.9L103.6,87.0L104.2,85.8L105.2,85.8L106.2,86.7L106.6,88.7L108.6,88.0L110.9,94.5L115.6,95.7L115.1,98.9L116.6,100.5L116.3,103.8L117.0,104.4L91.2,104.4L93.8,100.2L92.7,99.3L94.1,95.4L92.0,93.2L91.9,91.8L90.0,91.5L87.5,87.4L85.3,86.3L83.5,82.9L82.0,82.6L81.5,81.2L77.8,77.7L73.5,76.4L72.7,75.0L67.9,72.7L64.4,70.0L64.4,67.2L62.4,66.1L62.5,59.8L60.6,57.4L58.9,58.1L58.2,56.0L58.1,50.0L54.2,46.3L52.9,46.1L53.5,42.7L50.0,37.6L46.6,34.5L47.3,34.2L47.3,32.7L45.9,31.0L47.5,31.3L47.8,28.8L45.6,28.0L45.3,26.8L43.2,25.7L42.5,21.6L40.6,20.8L38.9,16.6L38.9,15.6L46.6,14.9Z"/>
          <path class="state-prio" data-code="26" data-name="Sonora" d="M120.8,90.1L120.8,91.2L119.9,91.2L119.7,90.2L120.8,90.1Z M125.5,80.4L127.1,84.5L125.2,89.8L120.3,87.2L122.0,85.8L122.2,81.5L125.5,80.4Z M82.8,30.9L84.1,30.9L83.8,31.4L82.8,30.9Z M80.3,16.4L147.3,39.2L188.9,39.2L187.8,41.0L186.3,41.7L188.0,41.9L187.3,43.0L190.2,45.5L188.1,45.6L188.1,47.5L185.6,47.5L185.5,50.8L186.9,51.7L186.8,53.0L190.3,54.3L190.5,56.1L191.6,56.1L190.8,57.1L191.3,58.6L192.7,59.7L191.3,59.4L191.1,68.5L192.8,69.2L192.8,70.4L190.6,70.8L191.4,71.9L190.7,72.1L190.9,75.2L189.6,75.7L190.4,78.8L190.2,79.6L189.4,79.5L189.1,81.6L189.9,82.3L189.4,82.9L189.8,87.1L190.9,89.4L192.0,89.9L193.8,97.1L189.0,99.1L183.2,99.0L183.3,101.9L184.0,104.0L186.9,107.5L186.1,108.1L186.4,109.4L188.7,110.1L189.2,112.2L190.7,113.3L190.6,114.9L191.9,117.7L190.5,119.3L191.7,123.2L194.8,124.4L194.1,124.5L190.3,132.0L186.8,132.7L186.1,134.1L187.4,134.3L186.7,135.6L184.4,135.6L182.2,137.7L180.9,136.8L179.9,137.3L179.8,133.9L177.1,130.6L170.7,129.6L166.9,122.7L161.4,121.0L158.1,118.4L155.8,117.8L155.5,108.7L156.1,107.7L157.3,107.5L151.8,105.3L150.3,106.5L151.2,106.3L150.7,107.5L149.0,105.2L147.5,105.6L145.5,104.5L143.7,102.8L140.4,97.2L135.9,95.4L134.9,92.8L131.6,89.5L132.5,89.0L127.6,85.4L127.8,82.6L126.6,81.3L126.4,78.6L123.5,78.2L123.9,75.4L120.3,70.9L118.8,67.4L117.3,66.9L117.2,61.8L115.3,60.0L115.1,57.0L111.4,52.2L110.5,49.4L111.1,46.6L110.5,44.5L111.1,45.8L111.7,44.2L111.0,42.0L101.6,39.3L101.3,36.3L97.5,34.0L95.2,33.3L95.7,34.7L94.4,36.0L92.2,36.0L84.9,31.3L78.5,28.7L77.6,27.7L77.4,22.6L76.0,21.3L77.6,19.2L78.0,16.8L80.3,16.4Z"/>
          <path class="state-base" data-code="3" data-name="Baja California Sur" d="M170.2,179.7L168.9,179.7L167.8,175.3L170.2,179.7Z M160.2,172.3L161.4,173.4L160.3,174.8L159.5,172.7L160.2,172.3Z M159.6,171.1L160.1,171.8L159.6,171.1Z M153.9,161.0L156.3,162.8L157.2,165.4L156.1,165.7L154.9,164.1L153.8,162.5L153.9,161.0Z M154.3,157.1L153.5,157.6L154.3,157.1Z M152.7,149.2L153.0,151.5L152.2,150.6L152.7,149.2Z M148.0,149.1L148.4,150.0L147.8,150.1L148.0,149.1Z M147.6,142.1L147.5,144.2L146.8,143.5L145.0,147.3L144.6,147.0L145.5,142.7L147.6,142.1Z M129.3,119.0L129.7,120.4L128.8,119.3L129.3,119.0Z M131.7,115.4L132.0,115.9L131.7,115.4Z M73.5,106.6L73.8,107.3L73.5,106.6Z M138.6,132.6L140.6,133.4L140.2,135.4L141.6,136.9L142.9,142.0L142.3,144.1L143.2,148.0L144.6,148.9L146.6,152.8L148.4,153.0L148.2,154.3L149.8,157.4L150.3,160.2L153.0,162.8L154.3,165.4L154.8,166.9L153.3,170.5L154.5,175.8L156.7,178.6L159.4,179.3L161.2,179.1L160.5,176.5L162.4,175.9L163.5,177.7L166.4,179.5L166.8,181.7L169.7,181.5L169.8,184.5L172.0,186.6L172.2,189.5L176.1,191.4L177.1,194.6L176.4,198.3L168.5,204.7L167.2,204.7L165.7,203.4L163.7,196.6L159.9,190.6L155.8,188.6L148.3,180.9L144.2,178.2L138.2,175.5L136.2,175.8L135.9,176.6L128.9,171.7L127.6,169.9L128.3,169.3L127.5,167.6L125.3,167.2L128.7,156.0L128.9,148.4L127.3,143.8L125.2,142.1L123.4,138.7L121.8,139.0L118.5,137.3L106.1,127.9L103.6,128.1L102.5,129.7L99.6,127.9L97.9,124.8L95.8,124.0L94.8,124.5L91.5,121.2L89.6,121.5L87.1,120.5L86.1,119.5L85.8,115.9L76.9,109.9L75.5,107.4L85.9,108.8L89.6,107.0L91.2,104.4L117.0,104.4L116.9,107.1L118.1,109.2L120.1,111.2L124.3,113.1L125.3,116.4L127.1,119.0L126.9,119.8L131.6,122.1L130.5,124.7L132.5,126.8L133.9,126.0L138.6,129.9L138.6,132.6Z"/>
          <path class="state-base" data-code="32" data-name="Zacatecas" d="M317.2,167.9L319.7,168.2L321.8,166.7L324.4,167.7L326.5,171.1L328.7,172.0L329.7,171.2L331.6,171.8L332.6,173.6L329.0,177.2L327.9,176.1L328.2,174.2L326.8,178.6L324.1,179.5L324.5,184.3L314.1,193.5L307.8,195.3L307.0,195.2L306.6,193.5L305.8,193.5L304.9,197.7L306.2,199.7L305.4,201.3L306.6,204.9L311.0,209.1L312.7,209.0L312.3,210.8L313.3,211.0L313.0,212.0L313.6,212.6L316.2,211.7L319.2,207.3L321.7,207.9L321.2,208.6L322.7,210.4L322.8,211.9L322.3,212.9L321.3,212.9L321.1,214.8L320.2,214.7L320.9,215.9L320.5,216.6L322.2,217.7L322.1,221.9L320.3,223.1L320.6,223.6L319.3,224.4L319.1,225.5L318.3,225.5L317.7,223.4L316.3,223.6L314.5,221.5L312.5,221.2L309.6,219.3L310.0,217.5L309.4,216.0L307.3,216.1L307.1,215.0L305.5,214.5L304.4,212.9L304.3,214.2L301.6,214.9L300.6,216.1L298.0,216.1L298.5,217.3L297.6,219.8L296.7,220.2L294.5,224.5L294.7,225.7L296.7,227.3L295.6,228.2L296.3,229.7L298.7,230.9L298.5,234.2L297.8,234.7L297.0,233.8L293.7,237.4L291.2,236.2L290.3,238.8L291.1,239.4L289.8,240.3L288.3,239.5L285.9,240.5L284.6,238.7L281.4,238.8L280.6,235.8L279.3,236.1L279.2,235.4L283.0,234.4L282.4,232.7L281.6,233.7L279.5,232.2L279.8,230.5L282.2,230.1L283.0,226.9L281.8,225.6L283.7,225.5L287.1,222.0L288.7,222.4L288.5,221.8L290.1,221.5L290.2,220.6L289.3,220.4L290.7,219.3L290.2,218.1L291.2,217.5L290.3,216.1L288.1,216.3L289.1,214.3L287.0,213.7L285.6,214.6L285.8,216.3L286.8,216.0L286.7,216.9L284.8,217.6L284.0,219.6L279.8,219.7L281.4,216.4L280.7,215.1L281.8,213.2L281.2,210.9L279.1,210.6L278.3,210.9L277.0,215.1L276.6,218.5L275.5,215.3L276.6,213.7L276.8,210.6L278.2,209.8L278.6,207.7L275.8,207.1L273.7,207.3L272.9,208.2L273.9,208.7L274.7,211.1L274.1,211.3L275.4,212.2L273.8,214.7L272.5,214.9L273.3,212.7L272.8,211.4L272.1,212.1L270.7,211.9L271.2,214.1L270.4,213.5L268.9,215.1L267.9,214.2L270.2,206.5L272.7,206.7L271.2,203.1L271.1,199.7L273.0,193.2L276.9,189.7L277.6,190.2L278.0,189.0L276.8,188.9L277.4,183.4L276.5,182.5L280.3,179.7L280.7,180.5L282.1,178.8L281.9,177.1L283.8,176.4L284.6,174.2L287.6,173.9L290.3,174.8L291.3,173.5L293.9,174.3L294.1,173.6L295.1,175.1L295.9,174.7L296.6,175.3L301.4,174.3L299.9,165.0L298.0,164.2L298.8,162.9L298.0,161.8L302.0,163.1L301.7,160.8L304.7,160.6L312.7,162.7L314.1,165.5L317.2,166.3L317.0,167.2L316.5,167.0L317.2,167.9Z"/>
          <path class="state-base" data-code="10" data-name="Durango" d="M239.5,128.5L242.3,130.6L242.0,129.8L242.9,129.5L244.1,131.4L245.5,131.5L245.1,130.1L246.4,132.8L247.8,133.6L249.3,133.3L251.5,134.5L254.4,133.3L255.2,135.3L258.1,133.5L259.7,133.6L263.9,136.9L265.2,135.4L266.4,131.7L269.0,129.3L268.5,127.9L269.3,127.0L270.1,128.3L280.3,129.4L285.4,131.7L287.4,137.9L285.8,140.7L286.0,148.9L283.3,152.6L286.1,155.8L283.8,155.7L283.0,157.7L285.7,161.0L287.4,161.9L287.5,163.8L290.4,166.5L294.7,168.2L298.0,161.8L298.8,162.9L298.0,164.2L299.9,165.0L301.4,174.3L296.6,175.3L295.9,174.7L295.1,175.1L294.1,173.6L293.9,174.3L291.3,173.5L290.3,174.8L287.6,173.9L284.6,174.2L283.8,176.4L281.9,177.1L282.1,178.8L280.7,180.5L280.3,179.7L276.5,182.5L277.4,183.4L276.8,188.9L278.0,189.0L277.6,190.2L276.9,189.7L273.0,193.2L271.1,199.7L271.2,203.1L272.7,206.7L270.2,206.5L269.0,209.1L269.5,210.1L268.4,211.3L268.9,212.6L267.9,213.8L265.1,215.0L263.4,212.8L262.4,212.8L262.2,210.7L260.5,210.6L260.2,209.2L258.8,209.1L256.5,212.0L254.9,209.0L258.2,207.4L257.9,206.1L256.5,205.3L256.2,202.7L250.4,203.4L249.8,200.8L248.8,199.9L246.3,200.3L244.7,199.4L244.7,196.8L243.1,194.9L243.7,194.0L242.5,191.4L241.7,190.3L240.2,191.4L239.9,190.7L239.1,184.5L240.9,184.6L239.3,183.7L239.8,182.7L238.3,181.8L238.3,179.8L237.0,177.4L233.5,175.3L231.8,176.7L229.0,177.0L227.5,174.5L228.2,173.4L227.0,172.7L225.7,169.6L222.9,166.6L221.6,166.6L221.7,165.7L218.1,162.0L218.2,158.3L216.7,156.6L217.3,156.7L216.6,154.9L217.6,154.3L217.3,152.1L220.9,150.8L220.5,150.1L222.2,150.5L222.6,151.9L226.6,152.2L230.0,148.6L228.3,149.6L228.3,145.2L228.5,144.4L230.1,144.1L230.6,139.5L232.7,136.7L233.2,137.0L234.4,130.7L236.0,129.5L235.1,128.4L236.5,128.7L237.5,127.0L239.5,128.5Z"/>
          <path class="state-prio" data-code="8" data-name="Chihuahua" d="M222.8,30.3L228.8,30.3L231.5,31.3L234.4,36.2L239.1,38.5L249.2,48.4L256.1,51.8L258.1,54.1L258.8,57.6L261.9,61.7L261.9,66.6L264.4,71.5L267.3,74.1L270.4,75.4L271.3,77.1L273.5,78.5L278.1,79.6L279.2,81.2L282.2,81.7L284.3,83.9L285.7,84.4L285.9,83.9L286.6,84.7L282.1,92.4L281.4,91.9L276.6,102.2L275.5,104.9L276.4,105.2L276.1,106.1L275.2,105.8L274.9,107.6L276.0,107.8L275.3,108.3L276.3,109.5L276.8,113.2L276.4,117.9L277.2,118.1L278.8,123.5L276.8,126.0L278.6,127.3L279.6,129.3L270.1,128.3L269.3,127.0L268.5,127.9L269.0,129.3L266.4,131.7L265.2,135.4L263.9,136.9L259.7,133.6L258.1,133.5L255.2,135.3L254.4,133.3L251.5,134.5L249.3,133.3L247.8,133.6L246.4,132.8L245.1,130.1L245.5,131.5L244.1,131.4L242.9,129.5L242.0,129.8L242.3,130.6L237.5,127.0L236.5,128.7L235.1,128.4L236.0,129.5L234.4,130.7L233.2,137.0L232.7,136.7L230.6,139.5L230.1,144.1L228.5,144.4L228.3,149.6L230.0,148.6L226.6,152.2L222.6,151.9L222.2,150.5L220.5,150.1L221.0,149.4L219.2,149.0L219.3,148.3L215.1,145.0L215.4,143.5L214.2,141.4L212.9,140.8L211.1,141.5L210.4,140.4L207.2,140.2L206.4,140.8L205.1,139.7L202.2,134.9L203.1,133.2L201.0,131.0L202.2,130.1L202.3,128.6L200.8,126.5L199.9,126.5L199.9,125.8L198.3,125.8L199.0,123.3L197.0,123.2L196.5,123.9L194.0,123.3L193.4,124.2L191.7,123.2L190.5,119.3L191.9,117.7L190.6,114.9L190.7,113.3L189.2,112.2L188.7,110.1L186.0,108.8L186.9,107.5L184.0,104.0L183.2,99.0L189.0,99.1L193.8,97.1L192.0,89.9L190.9,89.4L189.8,87.1L189.4,82.9L189.9,82.3L189.1,81.6L189.4,79.5L190.2,79.6L190.4,78.8L189.6,75.7L190.9,75.2L190.7,72.1L191.4,71.9L190.6,70.8L192.8,70.4L192.8,69.2L191.1,68.5L191.3,59.4L192.7,59.7L191.3,58.6L190.8,57.1L191.6,56.1L190.5,56.1L190.3,54.3L186.8,53.0L186.9,51.7L185.5,50.8L185.6,47.5L188.1,47.5L188.1,45.6L190.2,45.5L187.3,43.0L188.0,41.9L186.3,41.7L186.7,41.0L187.8,41.0L188.9,39.2L198.7,39.1L198.7,30.3L222.8,30.3Z"/>
          <path class="state-base" data-code="6" data-name="Colima" d="M81.8,293.0L82.4,293.4L81.4,293.6L81.8,293.0Z M148.9,283.4L150.1,284.6L149.5,286.1L147.8,284.4L148.9,283.4Z M281.0,270.5L283.4,273.9L282.7,278.3L283.3,281.2L281.8,283.0L281.0,282.6L280.7,284.8L278.9,286.7L274.7,283.2L268.2,280.1L268.6,278.9L267.9,278.3L266.3,278.8L261.8,277.1L263.6,277.6L264.8,275.4L265.4,276.0L267.0,274.9L272.0,274.2L273.1,270.8L276.0,272.0L276.2,271.4L277.4,272.5L281.0,270.5Z"/>
          <path class="state-base" data-code="18" data-name="Nayarit" d="M234.2,234.2L233.8,235.0L233.3,234.6L234.2,234.2Z M230.5,231.7L231.9,232.4L231.4,233.2L229.5,232.3L230.5,231.7Z M226.6,227.8L228.7,228.5L228.7,230.6L227.0,229.6L226.6,227.8Z M226.2,226.2L226.5,226.9L226.2,226.2Z M256.2,202.7L256.5,205.3L257.9,206.1L258.2,207.4L254.9,209.0L256.5,212.0L258.8,209.1L260.2,209.2L260.5,210.6L262.2,210.7L262.4,212.8L263.4,212.8L265.1,215.0L267.5,213.6L268.9,214.7L267.7,222.3L270.7,222.1L270.7,224.7L271.8,225.9L275.6,226.3L276.1,227.7L275.6,229.8L279.2,233.0L278.4,233.3L278.7,234.8L277.4,236.5L274.6,236.5L273.5,237.5L270.2,237.9L269.9,241.0L270.5,242.2L268.9,244.3L267.7,244.5L267.4,245.6L269.1,245.6L269.6,249.1L269.0,247.5L265.2,244.5L264.4,243.1L262.0,242.5L261.1,241.1L259.2,241.0L256.8,243.2L254.7,242.9L253.1,245.9L251.2,247.8L249.7,246.0L249.1,246.5L246.9,245.9L250.6,240.7L251.9,240.4L252.0,234.3L252.9,232.6L252.0,231.1L251.5,231.4L248.3,229.0L244.8,222.3L244.4,216.1L242.6,211.3L243.7,212.6L243.7,210.9L244.4,210.3L246.7,211.7L248.3,211.5L246.9,206.7L247.8,204.5L247.3,203.0L248.9,201.8L248.8,200.8L249.8,200.8L250.4,203.4L256.2,202.7Z"/>
          <path class="state-base" data-code="16" data-name="Michoacán de Ocampo" d="M311.0,254.2L311.6,257.1L313.0,256.5L315.5,257.2L316.7,255.0L319.7,254.6L319.7,255.7L321.5,256.1L321.5,257.1L320.4,257.0L320.8,260.1L324.3,260.8L325.1,260.2L324.4,259.8L324.9,259.0L325.6,259.8L327.8,259.3L328.5,260.8L327.9,261.9L330.9,262.2L331.1,261.4L332.5,262.7L335.1,261.2L336.5,261.6L336.3,262.5L339.4,261.1L338.9,259.4L340.1,256.0L339.6,255.3L342.6,256.9L341.7,258.1L343.4,260.1L343.1,260.8L343.8,260.8L343.6,262.6L344.3,263.7L343.5,264.0L343.2,266.3L341.3,266.8L342.7,270.9L342.4,271.8L340.3,273.4L338.5,279.3L336.4,280.3L336.2,281.7L333.3,284.5L332.5,283.1L331.7,283.9L332.6,289.9L335.3,292.0L334.4,293.3L331.7,290.7L330.2,290.5L329.4,291.4L327.8,289.8L322.9,289.4L319.0,290.6L316.5,288.3L314.1,288.3L312.2,289.5L312.5,294.4L310.4,296.0L307.1,296.9L306.7,298.9L307.6,301.3L306.6,301.7L283.3,293.6L278.9,286.7L280.7,284.8L281.0,282.6L281.8,283.0L283.4,280.9L286.2,281.0L288.1,280.0L289.0,281.8L289.9,281.9L292.3,279.5L291.8,277.9L292.5,278.2L292.8,277.1L296.5,275.5L298.0,276.3L300.3,272.0L299.6,270.2L297.2,270.8L297.2,268.8L295.8,267.6L295.3,265.3L296.7,264.6L296.9,262.9L296.0,261.9L293.0,261.0L291.8,261.7L291.2,261.0L291.5,258.3L293.5,258.3L292.9,257.6L295.4,258.9L295.3,258.3L297.9,257.6L297.9,256.5L299.1,255.7L300.7,255.6L302.3,254.3L305.5,254.4L308.3,253.4L311.0,254.2Z"/>
          <path class="state-prio" data-code="14" data-name="Jalisco" d="M275.5,215.3L276.6,218.5L277.0,215.1L278.3,210.9L279.1,210.6L281.2,210.9L281.8,213.2L280.7,215.1L281.4,216.4L279.8,219.7L284.0,219.6L284.8,217.6L286.7,216.9L286.8,216.0L285.8,216.3L285.6,214.6L287.0,213.7L289.1,214.3L288.1,216.3L290.3,216.1L291.1,217.2L290.2,218.1L290.7,219.3L289.3,220.4L290.2,220.6L290.1,221.5L288.5,221.8L288.7,222.4L287.1,222.0L283.7,225.5L281.8,225.6L283.0,226.9L282.2,230.1L280.5,230.1L279.7,231.0L279.5,232.2L281.6,233.7L282.4,232.7L283.0,234.4L280.2,234.8L279.2,235.4L279.3,236.1L280.6,235.8L281.4,238.8L284.6,238.7L285.9,240.5L288.3,239.5L289.8,240.3L290.8,239.9L290.3,238.8L291.2,236.2L293.7,237.4L297.0,233.8L297.8,234.7L298.5,234.2L298.7,230.9L296.3,229.7L295.6,228.2L297.7,226.6L300.1,226.8L304.2,229.2L307.5,227.6L309.3,224.7L312.9,223.6L313.0,222.9L311.9,222.6L312.5,221.2L314.5,221.5L316.3,223.6L317.7,223.4L318.8,225.7L317.5,226.1L318.0,227.0L316.5,231.0L317.7,233.2L315.8,233.7L316.4,235.5L314.2,236.3L313.3,239.3L312.3,239.5L311.2,242.2L308.6,244.7L308.9,246.5L310.9,249.1L308.3,253.4L305.5,254.4L302.3,254.3L300.7,255.6L299.1,255.7L297.9,256.5L297.9,257.6L295.3,258.3L295.4,258.9L292.9,257.6L293.5,258.3L291.5,258.3L291.2,261.0L291.8,261.7L293.0,261.0L296.0,261.9L296.9,262.9L296.7,264.6L295.3,265.3L295.8,267.6L297.2,268.8L297.2,270.8L299.6,270.2L300.3,272.0L298.0,276.3L296.5,275.5L292.8,277.1L292.5,278.2L291.8,277.9L292.3,279.5L289.9,281.9L289.0,281.8L288.1,280.0L283.3,281.2L282.7,278.3L283.4,273.9L281.0,270.5L277.4,272.5L276.2,271.4L276.0,272.0L273.1,270.8L272.0,274.2L267.0,274.9L265.4,276.0L264.8,275.4L263.6,277.6L259.6,275.9L260.0,275.0L258.4,274.9L255.7,272.9L254.6,269.6L251.6,267.2L247.2,260.7L246.2,256.4L243.9,253.7L243.8,252.9L245.2,251.7L250.4,250.9L251.6,250.0L252.1,248.8L251.2,247.8L253.1,245.9L253.8,243.7L255.4,242.7L256.8,243.2L259.2,241.0L261.1,241.1L262.0,242.5L264.4,243.1L265.2,244.5L269.0,247.5L269.6,249.1L269.1,245.6L267.4,245.6L267.7,244.5L268.9,244.3L270.5,242.2L269.9,241.0L270.2,237.9L273.5,237.5L274.6,236.5L277.4,236.5L278.7,234.8L278.4,233.3L279.2,233.0L275.6,229.8L276.1,227.7L275.6,226.3L271.8,225.9L270.7,224.7L270.7,222.1L267.7,222.3L267.6,219.6L268.9,215.1L270.4,213.5L271.2,214.1L270.7,211.9L272.1,212.1L272.8,211.4L273.3,212.7L272.5,214.9L273.8,214.7L274.9,213.3L275.4,212.2L274.1,211.3L274.7,211.1L273.9,208.7L272.9,208.2L273.7,207.3L278.6,207.7L278.2,209.8L276.8,210.6L276.6,213.7L275.5,215.3Z"/>
          <path class="state-base" data-code="7" data-name="Chiapas" d="M492.7,302.0L493.3,303.0L492.5,305.3L495.1,306.5L495.7,307.6L495.2,311.0L499.8,312.3L500.4,313.6L499.7,313.7L499.6,315.4L501.0,316.5L502.3,316.2L502.6,317.6L505.1,319.6L506.1,321.6L507.6,322.3L508.0,321.7L507.7,322.3L508.8,323.2L510.8,323.6L512.5,325.1L514.0,328.0L513.6,329.1L517.6,330.9L518.1,332.6L517.1,334.3L517.3,337.8L494.2,337.8L485.6,353.7L488.3,357.4L486.7,359.0L486.1,361.8L486.7,365.4L485.3,368.0L465.4,347.2L457.3,340.8L452.8,338.8L451.5,335.7L452.9,333.8L451.0,330.2L456.0,316.5L457.6,314.8L459.5,314.6L462.3,310.9L462.7,308.9L465.0,306.6L464.4,304.5L465.1,304.7L465.3,301.5L466.4,300.5L469.8,302.3L469.3,303.6L470.7,303.2L471.2,304.0L470.4,305.6L470.6,307.5L472.4,310.2L474.4,310.2L474.7,311.2L474.0,311.5L475.3,311.6L475.8,312.9L477.2,312.2L479.3,309.0L483.1,307.6L483.1,305.9L484.4,306.1L486.3,304.3L487.0,304.7L486.8,303.8L488.3,303.1L488.1,302.5L489.6,301.6L490.3,302.8L490.9,302.1L492.7,302.0Z"/>
          <path class="state-base" data-code="27" data-name="Tabasco" d="M483.4,291.1L486.2,291.1L486.5,297.0L487.4,298.3L488.6,298.2L489.9,299.8L495.8,302.6L496.3,298.2L498.0,296.8L498.0,297.5L501.4,298.9L503.4,300.6L507.5,300.8L507.5,314.7L499.4,314.7L500.4,313.6L499.8,312.3L495.2,311.0L495.7,307.6L495.1,306.5L492.5,305.3L493.3,303.0L492.7,302.0L490.9,302.1L490.3,302.8L489.6,301.6L486.8,303.8L487.0,304.7L486.3,304.3L484.4,306.1L483.1,305.9L483.1,307.6L478.6,309.5L477.2,312.2L475.8,312.9L475.3,311.6L474.0,311.5L474.7,311.2L474.4,310.2L472.4,310.2L470.6,307.5L470.4,305.6L471.2,304.0L470.7,303.2L469.3,303.6L469.8,302.3L466.4,300.5L465.3,301.5L465.1,304.7L464.4,304.5L465.0,306.6L462.7,308.9L460.5,313.5L459.9,313.4L459.0,312.1L460.3,309.0L457.6,306.1L454.4,304.6L453.9,303.0L452.0,302.6L452.4,300.3L451.1,295.9L464.3,291.6L473.2,291.4L475.9,289.8L477.0,288.0L480.9,287.4L481.9,290.5L483.4,291.1Z"/>
          <path class="state-base" data-code="20" data-name="Oaxaca" d="M406.4,287.7L409.4,288.9L413.7,296.9L414.6,296.4L414.4,297.3L420.6,297.6L421.2,301.1L419.5,305.9L423.0,309.5L427.0,308.2L431.3,305.2L432.2,306.8L430.6,307.6L434.2,312.4L437.5,313.6L436.9,315.9L455.9,317.0L451.0,330.2L452.9,333.8L451.6,336.4L453.5,339.2L443.8,335.5L433.1,335.5L429.5,337.5L427.7,339.7L421.8,341.3L413.4,345.4L409.8,345.2L407.7,345.9L402.3,344.4L395.9,340.7L385.5,339.5L377.7,334.6L371.9,333.0L373.6,331.7L374.6,331.8L375.5,330.5L374.7,328.5L378.1,327.8L377.5,325.4L379.8,324.3L380.5,322.1L379.8,320.5L381.6,318.9L377.8,317.3L378.1,315.4L376.0,314.3L376.6,313.2L375.8,309.2L375.0,307.8L373.5,307.3L373.0,305.9L372.9,304.5L374.1,302.7L377.1,301.5L377.3,302.5L378.1,302.3L379.0,300.7L381.2,300.2L383.5,301.9L385.0,301.8L385.9,300.1L387.2,299.7L385.9,298.8L384.9,300.6L384.6,299.7L385.2,298.8L384.2,297.2L385.6,294.5L388.2,294.6L388.0,296.6L389.7,299.2L391.1,299.6L392.3,298.1L396.7,296.2L397.3,297.0L398.9,297.0L400.1,295.5L402.3,295.4L404.1,292.4L405.1,293.0L405.4,290.3L404.6,289.7L405.4,287.0L406.4,287.7Z"/>
          <path class="state-base" data-code="11" data-name="Guanajuato" d="M324.1,225.4L325.1,226.5L328.3,226.6L330.9,228.4L330.5,229.3L334.9,231.5L337.6,230.7L337.8,228.3L340.9,227.9L342.7,228.6L344.8,231.1L346.7,231.1L346.9,232.3L349.9,231.7L349.6,234.4L350.2,235.7L351.8,235.6L351.4,236.8L349.0,238.3L346.1,237.1L345.7,240.6L344.8,240.8L344.2,242.7L341.2,241.9L339.9,243.5L338.5,243.6L337.4,242.8L336.9,244.3L335.9,244.7L336.1,246.5L335.2,246.9L337.1,249.3L337.1,252.6L340.1,256.0L338.9,259.4L339.4,261.1L336.3,262.5L336.5,261.6L335.3,261.6L335.9,261.1L332.5,262.7L331.1,261.4L330.9,262.2L328.9,261.7L328.7,262.3L327.9,261.9L328.5,260.8L327.8,259.3L325.6,259.8L324.9,259.0L324.4,259.8L325.1,260.2L324.3,260.8L320.8,260.1L320.4,257.0L321.5,257.1L321.5,256.1L319.7,255.7L319.7,254.6L316.7,255.0L315.5,257.2L313.0,256.5L311.6,257.1L311.0,254.2L308.3,253.4L310.9,249.1L308.9,246.5L308.6,244.7L311.2,242.2L312.3,239.5L313.3,239.3L314.2,236.3L316.4,235.5L315.8,233.7L317.7,233.2L316.5,231.0L318.0,227.0L317.5,226.1L321.4,224.9L324.1,225.4Z"/>
          <path class="state-base" data-code="1" data-name="Aguascalientes" d="M305.5,214.5L307.1,215.0L307.3,216.1L309.4,216.0L310.0,217.5L309.6,219.3L312.5,221.0L311.9,222.6L313.0,222.9L312.9,223.6L309.3,224.7L307.5,227.6L304.2,229.2L300.1,226.8L298.7,226.4L296.7,227.3L294.7,225.7L294.9,223.2L298.5,217.3L298.0,216.1L300.6,216.1L301.6,214.9L304.3,214.2L304.4,212.9L305.5,214.5Z"/>
          <path class="state-base" data-code="22" data-name="Querétaro" d="M360.5,228.3L361.5,229.7L362.1,233.4L361.4,234.9L362.8,235.8L362.8,238.3L359.5,239.3L358.3,238.5L356.8,239.4L357.3,240.4L356.6,242.8L354.0,246.5L354.8,248.0L349.0,250.3L348.4,255.7L347.5,255.4L347.3,256.7L346.3,256.3L347.2,259.7L345.9,259.4L344.5,260.4L342.3,259.5L342.4,258.4L341.7,258.1L342.6,256.9L339.0,254.9L338.6,253.6L337.1,252.6L337.1,249.3L335.2,246.9L336.1,246.5L335.9,244.7L336.9,244.3L337.4,242.8L338.5,243.6L339.9,243.5L341.2,241.9L344.2,242.7L344.8,240.8L345.7,240.6L346.1,237.1L349.0,238.3L351.4,236.8L351.8,235.6L350.2,235.7L349.6,234.4L350.4,230.1L352.0,230.2L353.9,233.0L356.4,233.0L357.1,230.6L358.4,230.9L358.8,229.5L360.5,228.3Z"/>
          <path class="state-base" data-code="24" data-name="San Luis Potosí" d="M335.1,174.8L334.5,178.2L335.4,178.3L334.9,179.3L336.6,179.9L336.0,185.8L337.9,189.0L337.1,191.1L337.7,192.2L337.0,191.9L336.6,194.0L337.7,195.1L337.3,198.4L339.9,199.1L339.2,197.0L340.4,197.1L340.9,196.2L342.0,196.4L341.8,197.3L344.0,197.7L343.8,199.8L345.5,201.1L343.9,202.7L343.9,203.9L345.1,203.8L345.4,205.7L344.1,206.9L345.5,207.6L348.0,207.2L349.4,208.9L351.6,208.5L354.6,209.8L354.1,207.2L355.3,207.3L355.9,208.8L357.9,209.4L359.7,213.7L362.7,213.7L367.0,214.8L369.7,213.9L369.5,214.5L371.3,214.5L375.1,217.2L375.9,217.0L375.7,218.1L374.0,219.3L372.9,222.6L371.4,222.6L372.6,222.8L371.9,224.5L373.0,225.0L373.6,226.4L370.2,229.0L372.2,231.6L372.7,233.8L369.5,234.7L371.0,235.7L370.3,237.8L367.0,238.2L365.9,237.9L364.8,235.3L362.8,235.8L361.4,234.9L362.1,233.4L361.5,229.7L360.5,228.3L358.8,229.5L358.4,230.9L357.1,230.6L356.4,233.0L354.8,233.2L352.0,230.2L350.4,230.1L349.2,232.3L347.6,232.6L346.7,231.1L344.8,231.1L342.7,228.6L340.9,227.9L337.8,228.3L337.6,230.7L334.9,231.5L330.5,229.3L330.9,228.4L328.3,226.6L325.1,226.5L324.1,225.4L322.2,225.0L319.1,225.5L319.3,224.4L320.6,223.6L320.3,223.1L322.1,221.9L322.2,217.7L320.5,216.6L320.9,215.9L320.2,214.7L321.1,214.8L321.3,212.9L322.3,212.9L322.8,211.9L322.7,210.4L321.2,208.6L321.7,207.9L319.2,207.3L316.2,211.7L313.7,212.6L313.0,212.0L313.3,211.0L312.3,210.8L312.7,209.0L311.0,209.1L306.6,204.9L305.4,201.3L306.2,199.7L304.9,197.7L305.8,193.5L306.6,193.5L307.0,195.2L307.8,195.3L314.1,193.5L324.5,184.3L324.1,179.5L326.8,178.6L328.2,174.2L327.9,176.1L329.0,177.2L333.2,173.0L335.1,174.8Z"/>
          <path class="state-base" data-code="29" data-name="Tlaxcala" d="M381.0,266.8L381.0,268.0L383.9,269.3L384.2,271.6L385.5,270.8L388.4,273.6L387.3,274.9L384.2,274.9L384.4,276.2L383.0,277.3L381.2,276.0L378.8,278.5L376.0,277.2L372.0,271.5L370.1,271.4L369.1,269.7L371.4,268.0L372.5,268.7L374.9,268.6L375.8,266.4L378.9,267.4L380.0,267.4L380.7,266.3L381.0,266.8Z"/>
          <path class="state-prio" data-code="21" data-name="Puebla" d="M386.2,245.0L386.9,245.3L386.3,248.4L387.1,248.6L387.1,249.7L389.1,250.1L390.0,251.4L388.3,252.1L388.1,253.0L386.5,252.1L386.0,253.5L387.2,254.7L387.5,254.1L387.6,254.9L386.1,255.5L386.4,257.2L388.5,257.5L389.2,259.4L390.8,258.3L391.7,256.1L392.9,256.1L397.0,257.8L397.2,258.6L394.3,263.4L393.7,266.5L394.2,267.4L392.2,268.3L392.0,269.9L393.5,271.0L392.7,272.1L393.2,273.2L394.6,272.9L395.9,273.5L396.1,274.5L398.9,274.3L399.9,275.0L398.7,276.6L399.0,277.9L396.2,277.2L395.0,278.6L394.6,280.5L395.3,282.1L393.4,284.6L393.5,286.7L397.1,288.5L398.2,291.0L400.5,289.2L401.5,289.4L402.5,290.4L403.3,290.1L403.6,291.7L404.6,292.3L402.3,295.4L400.1,295.5L398.9,297.0L397.3,297.0L396.7,296.2L394.2,297.0L391.3,299.6L389.7,299.2L388.0,296.6L388.2,294.6L385.4,294.6L384.2,297.2L385.2,298.8L384.9,300.6L385.9,298.8L387.2,299.7L385.9,300.1L385.0,301.8L383.5,301.9L381.2,300.2L379.0,300.7L378.1,302.3L377.3,302.5L377.1,301.5L374.1,302.7L374.0,300.4L372.4,300.2L370.2,301.4L367.1,299.9L368.5,299.3L366.2,299.0L365.9,296.8L363.8,296.4L364.0,295.2L362.9,295.2L362.6,293.6L367.2,289.9L369.1,291.4L368.9,285.6L368.3,285.6L370.5,280.1L370.1,271.4L372.0,271.5L376.0,277.2L378.8,278.5L381.2,276.0L383.0,277.3L384.4,276.2L384.2,274.9L388.1,274.5L388.4,273.6L385.5,270.8L384.2,271.6L383.9,269.3L381.0,268.0L380.7,266.3L380.0,267.4L377.5,267.3L377.2,266.5L378.3,265.5L376.1,263.8L377.9,261.6L378.8,261.5L378.5,260.1L380.0,258.1L379.3,258.1L378.3,255.9L377.1,256.7L376.7,255.8L379.5,254.4L383.4,249.5L383.2,246.9L383.9,244.6L386.2,245.0Z"/>
          <path class="state-base" data-code="13" data-name="Hidalgo" d="M373.4,234.0L372.0,236.2L373.4,236.5L374.2,238.2L376.5,237.7L376.7,238.7L377.7,238.4L379.1,239.7L377.0,244.0L377.7,244.9L377.3,245.5L375.6,245.3L376.1,245.1L375.6,244.0L374.1,244.3L373.6,246.3L371.9,247.5L374.1,246.3L372.9,248.3L373.1,249.4L371.1,251.2L371.9,253.8L373.5,254.4L378.7,250.6L380.6,247.8L382.0,250.8L379.5,254.4L376.7,255.8L377.1,256.7L378.3,255.9L379.3,258.1L380.0,258.1L378.5,260.1L378.8,261.5L377.9,261.6L376.1,263.8L378.3,266.0L375.8,266.4L374.9,268.6L372.5,268.7L371.4,268.0L369.8,268.7L371.1,265.5L369.2,264.2L369.7,263.8L366.2,263.0L364.4,264.7L363.5,263.5L364.7,262.8L363.9,261.8L364.8,261.4L364.8,260.4L364.0,259.6L363.2,261.5L363.3,260.7L362.6,261.2L362.6,260.6L361.3,260.4L360.0,261.8L359.9,263.1L356.9,265.3L357.1,263.9L355.2,262.8L355.9,260.7L354.6,257.5L350.9,257.7L348.4,255.8L349.0,250.3L354.8,248.0L354.0,246.5L356.6,242.8L357.3,240.4L356.8,239.4L358.3,238.5L359.5,239.3L362.8,238.3L362.8,235.8L364.8,235.3L365.9,237.9L369.3,238.2L369.5,237.4L370.8,237.4L371.0,235.7L369.5,234.7L373.4,234.0Z"/>
          <path class="state-prio" data-code="30" data-name="Veracruz de Ignacio de la Llave" d="M382.3,215.3L381.8,216.0L383.6,217.5L384.4,217.7L385.6,216.7L387.0,222.4L389.6,226.3L393.8,230.4L392.2,236.9L396.4,247.8L409.6,264.0L412.3,274.2L415.4,276.7L416.5,279.2L418.1,279.5L418.7,282.4L420.1,283.8L426.1,286.1L432.3,286.3L435.1,289.0L438.8,289.5L443.5,296.8L445.1,297.1L451.1,295.9L452.4,300.3L452.0,302.6L453.9,303.0L454.4,304.6L457.6,306.1L460.3,309.0L459.0,312.1L460.5,313.5L459.5,314.6L457.6,314.8L455.9,317.0L436.9,315.9L437.5,313.6L434.2,312.4L430.6,307.6L432.2,306.8L431.3,305.2L424.8,309.2L423.0,309.5L421.2,307.8L421.7,307.4L419.5,305.9L421.2,301.1L420.6,297.6L414.4,297.3L414.6,296.4L413.7,296.9L409.4,288.9L405.4,287.0L404.6,289.7L405.4,290.3L405.1,293.0L403.6,291.7L403.3,290.1L402.5,290.4L400.5,289.2L398.2,291.0L397.1,288.5L393.5,286.7L393.4,284.6L395.3,282.1L394.6,280.5L395.0,278.6L396.2,277.2L399.0,277.9L398.7,276.6L399.9,275.0L398.9,274.3L396.1,274.5L395.9,273.5L394.6,272.9L393.2,273.2L392.7,272.1L393.5,271.0L392.0,269.9L392.2,268.3L394.2,267.4L393.7,266.5L394.3,263.4L397.2,258.6L397.0,257.8L391.7,256.1L390.8,258.3L389.2,259.4L388.5,257.5L386.4,257.2L386.1,255.5L387.6,254.9L387.5,254.1L387.2,254.7L386.0,253.5L386.5,252.1L388.1,253.0L388.3,252.1L390.0,251.4L389.1,250.1L387.1,249.7L387.1,248.6L386.3,248.4L386.9,245.3L385.8,244.8L383.9,244.6L383.2,246.9L383.6,248.7L382.0,250.8L380.6,247.8L378.7,250.6L373.5,254.4L372.2,254.2L371.1,251.2L373.1,249.4L372.9,248.3L374.1,246.3L371.9,247.5L373.6,246.3L373.8,244.6L375.6,244.0L376.1,245.1L375.6,245.3L376.3,245.6L377.7,244.9L377.0,244.0L379.1,239.7L377.7,238.4L376.7,238.7L376.5,237.7L374.2,238.2L373.4,236.5L372.0,236.2L373.4,234.0L370.2,229.0L373.6,226.4L373.0,225.0L371.9,224.5L372.6,222.8L371.4,222.6L372.9,222.6L374.0,219.3L375.7,218.1L375.9,217.0L375.1,217.2L371.3,214.5L369.5,214.5L369.7,213.9L373.8,213.3L375.4,214.2L376.0,212.7L378.3,212.7L379.9,214.6L382.3,215.3Z"/>
          <path class="state-prio" data-code="19" data-name="Nuevo León" d="M348.7,108.9L350.8,110.7L347.2,113.2L347.3,114.3L350.2,115.4L350.4,118.3L352.2,122.7L350.1,126.1L351.7,126.0L353.4,127.3L352.0,130.4L354.2,130.5L356.7,131.8L356.1,136.6L359.2,138.6L360.3,138.5L361.0,142.3L363.4,141.5L365.6,144.1L367.0,142.6L371.3,143.2L371.3,153.5L374.0,153.5L374.2,154.3L365.0,161.7L363.4,161.7L363.2,160.7L360.8,162.2L360.6,167.5L358.5,166.9L355.7,168.4L354.9,170.1L350.7,171.8L350.9,173.2L352.4,172.7L353.3,174.9L352.1,180.4L354.1,182.0L355.6,185.3L355.0,185.0L352.7,187.4L348.4,187.1L346.6,191.3L347.3,194.8L344.5,194.5L343.3,195.6L344.5,196.2L344.0,197.7L341.8,197.3L342.0,196.4L340.9,196.2L340.4,197.1L339.2,197.0L339.9,199.1L337.3,198.4L337.7,195.1L336.6,194.0L337.0,191.9L337.7,192.2L337.1,191.1L337.9,189.0L335.8,184.2L336.6,179.9L334.9,179.3L335.4,178.3L334.5,178.2L335.1,174.8L333.2,173.0L332.6,173.6L331.6,171.8L331.1,166.3L332.9,164.7L331.2,163.2L331.5,159.9L333.2,158.5L335.3,158.1L339.9,159.4L340.1,158.7L341.8,158.8L341.5,157.8L340.1,156.4L337.5,156.5L337.8,155.1L335.0,153.0L336.2,152.7L333.5,152.0L332.8,150.7L331.9,150.6L330.5,147.1L330.9,144.6L329.7,144.4L329.5,142.0L327.1,140.2L324.3,136.3L332.4,129.1L333.5,131.5L336.3,127.7L336.2,123.0L333.4,121.8L331.6,123.0L330.9,120.1L333.7,117.4L338.4,116.2L339.6,110.5L342.5,108.3L345.9,111.9L348.7,108.9Z"/>
          <path class="state-base" data-code="5" data-name="Coahuila de Zaragoza" d="M330.1,79.3L331.6,80.0L332.0,81.4L333.6,82.6L334.3,86.0L336.1,88.2L337.0,91.5L338.7,92.9L338.9,94.3L339.9,94.6L339.3,95.0L340.7,99.0L342.1,100.6L344.3,101.5L346.1,104.5L347.1,104.7L348.7,108.9L345.9,111.9L342.5,108.3L339.6,110.5L338.4,116.2L333.7,117.4L330.9,120.1L331.6,123.0L333.4,121.8L336.2,123.0L336.3,127.7L333.5,131.5L332.4,129.1L324.3,136.3L327.1,140.2L329.5,142.0L329.7,144.4L330.9,144.6L330.5,147.1L331.9,150.6L332.8,150.7L333.5,152.0L336.2,152.7L335.0,153.0L337.8,155.1L337.5,156.5L341.3,157.1L341.8,158.8L340.1,158.7L339.9,159.4L335.3,158.1L333.2,158.5L331.5,159.9L331.2,163.2L332.9,164.7L331.1,166.3L331.6,171.8L329.7,171.2L328.7,172.0L326.5,171.1L324.4,167.7L321.8,166.7L319.7,168.2L316.8,167.8L316.5,167.0L317.0,167.2L317.2,166.3L314.1,165.5L312.7,162.7L305.8,160.8L301.7,160.8L302.0,163.1L298.0,161.8L294.7,168.2L290.4,166.5L287.5,163.8L287.4,161.9L285.7,161.0L283.0,157.7L283.8,155.7L286.1,155.8L283.3,152.6L286.0,148.9L285.8,140.7L287.4,137.9L285.4,131.7L279.6,129.3L278.6,127.3L276.8,126.0L278.8,123.5L277.2,118.1L276.4,117.9L276.8,113.2L276.3,109.5L275.3,108.3L276.0,107.8L274.9,107.6L275.2,105.8L276.1,106.1L276.4,105.2L275.5,104.9L276.6,102.2L281.4,91.9L282.1,92.4L286.6,84.7L290.0,85.1L292.1,81.4L294.5,80.4L293.9,79.8L294.3,77.9L295.0,77.8L295.5,74.6L297.7,70.7L300.2,70.2L300.8,69.4L303.1,69.9L303.9,67.8L309.2,69.4L312.8,69.0L315.3,69.9L317.7,69.7L318.2,68.9L318.3,69.9L320.8,69.8L321.6,72.1L322.5,72.0L322.6,73.6L323.4,72.5L323.4,74.6L326.9,75.7L327.9,77.7L330.1,79.3Z"/>
          <path class="state-base" data-code="28" data-name="Tamaulipas" d="M354.9,118.6L355.9,119.0L356.2,120.5L355.9,123.6L359.0,127.0L362.4,135.8L367.4,136.3L369.8,138.9L371.3,138.5L372.7,139.4L373.5,139.1L378.3,142.5L385.3,142.3L388.3,143.1L391.6,146.4L393.0,146.6L393.0,145.4L394.5,144.4L397.1,144.4L396.6,149.3L390.4,162.3L387.5,173.3L385.9,194.8L386.0,204.3L384.3,211.1L385.6,216.7L384.4,217.7L381.8,216.0L382.3,215.3L378.4,213.5L378.3,212.7L376.0,212.7L375.4,214.2L373.8,213.3L367.0,214.8L362.7,213.7L359.7,213.7L357.9,209.4L355.9,208.8L355.3,207.3L354.1,207.2L354.6,209.8L351.6,208.5L349.4,208.9L348.0,207.2L345.5,207.6L344.1,206.9L345.4,205.7L345.1,203.8L343.9,203.9L343.9,202.7L345.5,201.1L343.8,199.8L344.5,196.2L343.3,195.6L344.5,194.5L347.3,194.8L346.6,191.3L348.4,187.1L352.7,187.4L355.0,185.0L355.6,185.3L354.1,182.0L352.1,180.4L353.3,174.9L352.4,172.7L350.9,173.2L350.7,171.8L354.9,170.1L355.7,168.4L358.5,166.9L360.6,167.5L360.8,162.2L363.2,160.7L363.4,161.7L365.0,161.7L374.2,154.3L374.0,153.5L371.3,153.5L371.3,143.2L367.0,142.6L365.6,144.1L363.4,141.5L361.0,142.3L360.3,138.5L359.2,138.6L356.1,136.6L356.7,131.8L354.2,130.5L352.0,130.4L353.4,127.3L351.7,126.0L350.1,126.1L352.2,122.7L350.4,118.3L350.2,115.4L347.3,114.3L347.2,113.2L350.8,110.7L353.9,111.9L354.7,112.9L354.4,114.2L355.2,114.6L354.2,117.8L354.9,118.6Z"/>
          <path class="state-prio" data-code="31" data-name="Yucatán" d="M563.5,230.2L569.4,231.8L569.4,241.4L565.7,248.2L558.6,255.4L553.7,256.0L551.7,257.2L552.0,258.1L548.7,259.2L548.5,260.7L547.0,260.8L544.7,264.8L542.7,265.3L542.3,266.4L543.2,266.7L542.5,267.2L540.9,266.8L541.2,269.1L540.5,269.1L540.5,268.0L539.1,268.1L537.8,269.7L534.7,266.8L534.6,265.4L533.7,265.3L532.6,263.4L532.4,261.0L529.7,257.4L528.9,258.3L528.8,257.0L527.4,256.0L528.1,255.3L525.1,251.4L524.0,252.6L521.9,252.4L521.0,251.7L521.0,250.3L518.3,250.1L518.0,244.4L518.7,242.0L523.5,238.3L531.2,235.4L545.7,233.6L550.3,231.1L556.7,230.4L558.7,229.1L563.5,230.2Z M530.1,209.9L532.7,211.9L531.7,214.5L529.5,212.4L530.3,211.3L529.5,210.1L530.1,209.9Z"/>
          <path class="state-base" data-code="4" data-name="Campeche" d="M518.4,246.3L518.3,250.1L521.0,250.3L521.0,251.7L521.9,252.4L524.0,252.6L525.1,251.4L528.1,255.3L527.4,256.0L528.8,257.0L528.9,258.3L529.7,257.4L532.4,261.0L532.6,263.4L533.7,265.3L534.6,265.4L534.7,266.8L540.5,272.2L541.0,292.5L540.6,297.2L539.5,297.3L539.5,298.5L540.6,298.5L540.2,299.7L539.4,299.7L539.4,301.0L540.4,301.0L540.4,303.7L507.5,303.7L507.5,300.8L503.4,300.6L501.4,298.9L498.0,297.5L498.0,296.8L496.3,298.2L495.8,302.6L489.9,299.8L488.6,298.2L487.4,298.3L486.5,297.0L486.2,291.1L481.9,290.5L480.9,287.4L490.1,286.4L491.9,288.1L492.2,287.1L498.3,284.6L511.5,274.6L513.4,265.7L517.2,261.7L516.4,259.8L516.2,251.2L518.0,244.4L518.4,246.3Z"/>
          <path class="state-prio" data-code="23" data-name="Quintana Roo" d="M572.5,292.6L573.2,291.2L572.5,292.6Z M574.1,285.6L574.6,287.5L574.1,285.6Z M583.8,249.9L579.2,255.6L578.7,252.9L580.3,250.2L583.8,249.9Z M582.6,237.2L582.5,238.2L583.7,238.7L581.3,244.3L574.6,251.5L571.4,256.5L570.4,260.1L571.2,262.7L570.5,262.2L570.8,263.4L570.0,264.7L568.6,265.0L567.5,267.0L565.7,267.5L565.8,269.1L566.9,269.5L567.0,270.7L568.0,269.7L569.6,269.9L571.0,268.2L571.6,268.8L571.1,271.3L569.6,272.7L569.1,272.2L567.6,273.2L566.7,275.9L567.7,276.9L569.2,274.6L571.0,274.4L569.3,276.6L563.9,296.4L562.8,297.3L560.5,296.9L560.5,292.0L556.6,292.0L556.6,290.8L552.5,290.4L550.2,295.4L548.6,296.5L548.2,298.9L545.2,302.1L542.6,300.1L540.4,301.3L539.4,301.0L539.4,299.7L540.2,299.7L540.6,298.5L539.5,298.5L539.5,297.3L540.6,297.2L541.0,292.5L540.5,272.2L537.8,269.7L539.1,268.1L540.5,268.0L540.5,269.1L541.2,269.1L540.9,266.8L542.5,267.2L543.2,266.7L542.3,266.4L542.7,265.3L544.7,264.8L547.0,260.8L548.5,260.7L548.7,259.2L552.0,258.1L551.7,257.2L553.7,256.0L558.6,255.4L565.7,248.2L569.4,241.4L569.4,231.8L575.0,232.9L577.0,232.2L576.7,230.5L577.5,229.8L579.4,230.7L581.7,236.4L582.6,234.9L582.2,233.2L582.7,233.4L582.6,237.2Z M577.0,229.7L575.5,230.9L573.2,230.6L571.9,231.3L573.0,230.3L575.3,230.7L577.0,229.7Z"/>

          <!-- Nuevo León destacado -->
          <path class="state-highlight" d="M348.7,108.9L350.8,110.7L347.2,113.2L347.3,114.3L350.2,115.4L350.4,118.3L352.2,122.7L350.1,126.1L351.7,126.0L353.4,127.3L352.0,130.4L354.2,130.5L356.7,131.8L356.1,136.6L359.2,138.6L360.3,138.5L361.0,142.3L363.4,141.5L365.6,144.1L367.0,142.6L371.3,143.2L371.3,153.5L374.0,153.5L374.2,154.3L365.0,161.7L363.4,161.7L363.2,160.7L360.8,162.2L360.6,167.5L358.5,166.9L355.7,168.4L354.9,170.1L350.7,171.8L350.9,173.2L352.4,172.7L353.3,174.9L352.1,180.4L354.1,182.0L355.6,185.3L355.0,185.0L352.7,187.4L348.4,187.1L346.6,191.3L347.3,194.8L344.5,194.5L343.3,195.6L344.5,196.2L344.0,197.7L341.8,197.3L342.0,196.4L340.9,196.2L340.4,197.1L339.2,197.0L339.9,199.1L337.3,198.4L337.7,195.1L336.6,194.0L337.0,191.9L337.7,192.2L337.1,191.1L337.9,189.0L335.8,184.2L336.6,179.9L334.9,179.3L335.4,178.3L334.5,178.2L335.1,174.8L333.2,173.0L332.6,173.6L331.6,171.8L331.1,166.3L332.9,164.7L331.2,163.2L331.5,159.9L333.2,158.5L335.3,158.1L339.9,159.4L340.1,158.7L341.8,158.8L341.5,157.8L340.1,156.4L337.5,156.5L337.8,155.1L335.0,153.0L336.2,152.7L333.5,152.0L332.8,150.7L331.9,150.6L330.5,147.1L330.9,144.6L329.7,144.4L329.5,142.0L327.1,140.2L324.3,136.3L332.4,129.1L333.5,131.5L336.3,127.7L336.2,123.0L333.4,121.8L331.6,123.0L330.9,120.1L333.7,117.4L338.4,116.2L339.6,110.5L342.5,108.3L345.9,111.9L348.7,108.9Z"/>

          <!-- Etiqueta NL -->
          <text x="340.2" y="135" font-family="JetBrains Mono" font-size="8" font-weight="500" letter-spacing="0.14em" fill="rgba(10,24,40,0.6)" text-anchor="middle">NUEVO LEÓN</text>

          <!-- PUNTOS PDV en ciudades reales -->
          <!-- Monterrey cluster (NL) -->
          <circle cx="336" cy="148" r="2.6" fill="#3C5A78"/>
          <circle cx="343" cy="150" r="2.6" fill="#3C5A78"/>
          <circle cx="340" cy="153" r="2.6" fill="#AEBBC7"/>
          <circle cx="346" cy="146" r="2.4" fill="#C77A4E" class="pulse"/>
          <circle cx="333" cy="151" r="2.4" fill="#AEBBC7"/>

          <!-- CDMX cluster -->
          <circle cx="358" cy="270" r="2.6" fill="#3C5A78"/>
          <circle cx="364" cy="272" r="2.6" fill="#3C5A78"/>
          <circle cx="361" cy="275" r="2.4" fill="#C77A4E"/>
          <circle cx="365" cy="268" r="2.4" fill="#AEBBC7"/>
          <circle cx="356" cy="274" r="2.4" fill="#3C5A78" class="pulse"/>

          <!-- Guadalajara -->
          <circle cx="283" cy="246" r="2.6" fill="#3C5A78"/>
          <circle cx="289" cy="248" r="2.6" fill="#AEBBC7"/>
          <circle cx="286" cy="251" r="2.4" fill="#C77A4E" class="pulse"/>
          <circle cx="291" cy="245" r="2.4" fill="#3C5A78"/>

          <!-- Cancún (QRoo) -->
          <circle cx="580" cy="237" r="2.6" fill="#3C5A78"/>
          <circle cx="583" cy="240" r="2.4" fill="#AEBBC7"/>
          <circle cx="578" cy="241" r="2.4" fill="#C77A4E"/>

          <!-- Tijuana (BCN) -->
          <circle cx="40" cy="15" r="2.6" fill="#3C5A78"/>
          <circle cx="43" cy="18" r="2.4" fill="#AEBBC7"/>
          <circle cx="38" cy="20" r="2.4" fill="#C77A4E"/>

          <!-- Mexicali (BCN) -->
          <circle cx="58" cy="15" r="2.4" fill="#3C5A78"/>
          <circle cx="60" cy="17" r="2.4" fill="#AEBBC7"/>

          <!-- Chihuahua -->
          <circle cx="237" cy="92" r="2.6" fill="#3C5A78"/>
          <circle cx="240" cy="95" r="2.4" fill="#AEBBC7"/>
          <circle cx="234" cy="94" r="2.4" fill="#C77A4E" class="pulse"/>

          <!-- Cd. Juárez -->
          <circle cx="226" cy="55" r="2.4" fill="#3C5A78"/>
          <circle cx="228" cy="58" r="2.4" fill="#AEBBC7"/>

          <!-- Veracruz -->
          <circle cx="413" cy="276" r="2.6" fill="#3C5A78"/>
          <circle cx="417" cy="278" r="2.4" fill="#AEBBC7"/>
          <circle cx="414" cy="281" r="2.4" fill="#C77A4E"/>

          <!-- Puebla -->
          <circle cx="378" cy="280" r="2.6" fill="#3C5A78"/>
          <circle cx="381" cy="282" r="2.4" fill="#AEBBC7"/>

          <!-- Hermosillo (Son) -->
          <circle cx="149" cy="83" r="2.6" fill="#3C5A78"/>
          <circle cx="152" cy="86" r="2.4" fill="#AEBBC7"/>
          <circle cx="146" cy="85" r="2.4" fill="#C77A4E"/>

          <!-- Culiacán (Sin) -->
          <circle cx="213" cy="167" r="2.6" fill="#3C5A78"/>
          <circle cx="216" cy="169" r="2.4" fill="#AEBBC7"/>
          <circle cx="210" cy="170" r="2.4" fill="#C77A4E"/>

          <!-- Mérida (Yuc) -->
          <circle cx="532" cy="242" r="2.6" fill="#3C5A78"/>
          <circle cx="535" cy="244" r="2.4" fill="#AEBBC7"/>

          <!-- PDV destacado: San Pedro Garza (NL) -->
          <g transform="translate(338.7, 150.3)">
            <circle r="9" fill="none" stroke="#3C5A78" stroke-width="1.2" opacity="0.5"/>
            <circle r="14" fill="none" stroke="#3C5A78" stroke-width="0.8" opacity="0.25"/>
            <circle r="4" fill="#3C5A78" stroke="#FFFFFF" stroke-width="1.5"/>
          </g>
        </svg>
