<?xml version="1.0" encoding="UTF-8" standalone="no"?>
<!DOCTYPE svg PUBLIC "-//W3C//DTD SVG 1.1//EN" "http://www.w3.org/Graphics/SVG/1.1/DTD/svg11.dtd">
<svg width="100%" height="100%" viewBox="0 0 49 49" version="1.1" xmlns="http://www.w3.org/2000/svg" xmlns:xlink="http://www.w3.org/1999/xlink" xml:space="preserve" xmlns:serif="http://www.serif.com/" style="fill-rule:evenodd;clip-rule:evenodd;stroke-linejoin:round;stroke-miterlimit:2;">
    <g transform="matrix(0.414508,0,0,0.414508,-428.601,-44.3523)">
        <path d="M1092,107C1124.01,107 1150,132.989 1150,165C1150,197.011 1124.01,223 1092,223C1059.99,223 1034,197.011 1034,165C1034,132.989 1059.99,107 1092,107ZM1049.56,169.909C1049.55,173.764 1049.46,172.947 1049.55,173.088C1051.75,176.547 1054.93,161.31 1054.52,164.312C1054.41,165.122 1055.37,162.236 1056.18,160.034C1057.69,155.969 1061.41,154.266 1063.68,152.992C1068.16,150.479 1072.44,150.082 1074.96,151.205C1078.01,152.565 1079.12,153.879 1080.85,155.045C1082.57,156.211 1084.63,157.786 1085.73,159.955C1086.82,162.124 1087.95,163.219 1089.2,166.236C1090.76,169.631 1091.93,170.978 1093.66,173.274C1095.38,175.57 1098.68,178.796 1101.35,179.963C1104.02,181.131 1106.87,181.724 1111.17,181.733C1116.51,181.745 1120.94,180.953 1124.45,179.359C1127.96,177.765 1130.64,175.573 1132.48,172.782C1133.14,171.77 1133.67,170.704 1134.15,169.596C1134.98,167.649 1135.65,165.565 1135.3,164.095C1134.31,159.896 1130.12,168.327 1128.42,169.862C1126.03,172.023 1123.25,174.142 1121.21,175.299C1119.16,176.457 1116.4,177.365 1112.84,177.357C1109.9,177.351 1107.5,176.894 1105.88,176.011C1104.26,175.129 1102.24,174.688 1101.14,172.927C1100.04,171.166 1096.5,168.015 1095.25,165.437C1093.58,161.728 1092.62,161.655 1091.3,158.196C1090.1,155.044 1088.17,152.231 1085.44,150.718C1082.72,149.205 1079.71,145.49 1074.79,145.48C1067.14,145.463 1060.27,145.673 1057.3,150.811C1056.17,152.774 1055.36,152.736 1054.53,154.704C1053.34,157.558 1049.57,166.564 1049.56,169.909Z" style="fill:rgb(28,43,56);"/>
    </g>
</svg>
