<?xml version="1.0" encoding="UTF-8" standalone="no"?>
<svg viewBox="45 0 855 120" version="1.1" xmlns="http://www.w3.org/2000/svg" xmlns:xlink="http://www.w3.org/1999/xlink" xml:space="preserve" xmlns:serif="http://www.serif.com/" style="fill-rule:evenodd;clip-rule:evenodd;stroke-linejoin:round;stroke-miterlimit:2;">
    <g transform="matrix(1,0,0,1,49.7369,108.014)">
        <text x="0px" y="0px" style="font-family:'Georgia', serif;font-size:150px;fill:#1C2B38;">I<tspan x="67.447px 215.534px 322.605px 429.604px 543.853px " y="0px 0px 0px 0px 0px ">MBERI</tspan></text>
    </g>
    <g transform="matrix(1,0,0,1,795,107)">
        <text x="0px" y="0px" style="font-family:'Georgia', serif;font-size:150px;fill:#1C2B38;">N</text>
    </g>
    <g transform="matrix(1,0,0,1,49.7369,108.014)">
        <text x="0px" y="0px" style="font-family:'Georgia', serif;font-size:150px;fill:#1C2B38;">I<tspan x="67.447px 215.534px 322.605px 429.604px 543.853px " y="0px 0px 0px 0px 0px ">MBERI</tspan></text>
    </g>
    <g transform="matrix(1,0,0,1,-369,-107)">
        <path d="M1092,107C1124.01,107 1150,132.989 1150,165C1150,197.011 1124.01,223 1092,223C1059.99,223 1034,197.011 1034,165C1034,132.989 1059.99,107 1092,107ZM1046.67,168.981C1046.66,173.082 1046.57,172.213 1046.66,172.362C1049,176.042 1052.39,159.835 1051.95,163.029C1051.83,163.89 1052.85,160.82 1053.71,158.478C1055.31,154.155 1059.28,152.342 1061.69,150.988C1066.46,148.315 1071.01,147.893 1073.69,149.087C1076.93,150.534 1078.11,151.932 1079.94,153.172C1081.78,154.411 1083.97,156.086 1085.14,158.394C1086.3,160.701 1087.5,161.866 1088.83,165.075C1090.5,168.686 1091.74,170.118 1093.57,172.561C1095.41,175.003 1098.92,178.434 1101.76,179.676C1104.6,180.918 1107.63,181.549 1112.2,181.558C1117.88,181.57 1122.59,180.729 1126.33,179.033C1130.06,177.338 1132.91,175.006 1134.86,172.037C1135.57,170.961 1136.13,169.827 1136.64,168.649C1137.52,166.578 1138.23,164.36 1137.87,162.798C1136.82,158.331 1132.35,167.298 1130.55,168.932C1128.01,171.23 1125.05,173.484 1122.88,174.715C1120.7,175.946 1117.76,176.912 1113.97,176.904C1110.85,176.897 1108.3,176.411 1106.57,175.472C1104.85,174.533 1102.7,174.064 1101.53,172.191C1100.36,170.318 1096.6,166.967 1095.27,164.225C1093.49,160.28 1092.47,160.202 1091.06,156.523C1089.78,153.171 1087.73,150.178 1084.84,148.569C1081.94,146.96 1078.74,143.008 1073.5,142.997C1065.37,142.98 1058.06,143.203 1054.9,148.667C1053.7,150.756 1052.84,150.715 1051.96,152.809C1050.69,155.844 1046.67,165.423 1046.67,168.981Z" style="fill:#1C2B38;"/>
    </g>
    <g transform="matrix(1,0,0,1,795,107)">
        <text x="0px" y="0px" style="font-family:'Georgia', serif;font-size:150px;fill:#1C2B38;">N</text>
    </g>
    </svg>
